<svg version="1" xmlns="http://www.w3.org/2000/svg" width="200" height="200" viewBox="0 0 150.000000 150.000000"><path d="M59.9 21.5c-33.1 8.4-51.8 39.7-41.7 70 9 27.2 40.8 43.6 71.1 36.9 20.6-4.6 38-19.8 43.7-38.2 2.5-8 2.7-21.5.4-29.3-5.2-17.8-18.6-31.1-38.1-38-7.6-2.7-27.2-3.5-35.4-1.4zM95.5 26c8.5 2.8 16.8 8.4 23.7 15.8 10.2 11.1 15.1 26.1 12.9 39.6-4.3 26.1-28.4 45.6-56.6 45.6-28.3-.1-52.3-19-56.7-44.8C14 54 37.5 26 68.5 23.1c9.1-.8 19.1.3 27 2.9z"/><path d="M62.3 35.9c-7.9 2.7-12.9 6.5-16.2 12.3-3.4 6-4.9 14.4-3.3 19.4 1 3.2.9 3.4-1.4 3.4-3.1 0-4 3.5-2.4 8.6 2.5 7.6 6.2 14.3 8 14.9 1.2.4 2 1.5 2 2.8 0 3 10.7 12.9 17.5 16.2 6.3 3.1 13.3 3.2 19.5.2 5.1-2.5 17-13.5 17-15.8 0-1 1.1-2.9 2.5-4.1 1.4-1.2 2.5-3.2 2.5-4.5 0-1.3 1.1-4.5 2.5-7.1 2.9-5.5 3.2-8.5.8-11-1.4-1.3-1.8-3.4-1.8-9.2-.1-8.2-1.3-11.4-6.7-17.6-4.2-4.7-9.1-7.8-15-9.2-7-1.8-19.4-1.4-25.5.7z"/></svg>